<svg xmlns="http://www.w3.org/2000/svg" viewBox="0 0 700 368"><defs><style>.cls-1,.cls-2,.cls-4{font-size:56px;fill:#52388d;}.cls-1,.cls-4{font-family:Montserrat-Black, Montserrat Black;}.cls-1{letter-spacing:0.2em;}.cls-2{font-family:Montserrat-SemiBold, Montserrat SemiBold;font-weight:700;letter-spacing:0.14em;}.cls-3{letter-spacing:0.15em;}.cls-4{letter-spacing:0.2em;}.cls-5{fill:none;}.cls-6{fill:#1d1d1b;}</style></defs><title>Artboard 1</title><g id="Layer_2" data-name="Layer 2"><text class="cls-1" transform="translate(281 146.06)">THE</text></g><g id="Layer_3" data-name="Layer 3"><text class="cls-2" transform="translate(156 197.51)">P<tspan class="cls-3" x="48.5" y="0">URCHASE</tspan></text></g><g id="Layer_4" data-name="Layer 4"><text class="cls-4" transform="translate(249 249.51)">HUNT</text></g><g id="Layer_5" data-name="Layer 5"><rect class="cls-5" x="344.5" y="270.51" width="15" height="13.75"/><rect class="cls-6" x="351.03" y="280.69" width="1.5" height="2.55"/><rect class="cls-6" x="351.03" y="276.11" width="1.5" height="2.55"/><rect class="cls-6" x="351.03" y="271.55" width="1.5" height="2.55"/><rect class="cls-5" x="344.5" y="284.26" width="15" height="13.75"/><rect class="cls-6" x="351.03" y="294.44" width="1.5" height="2.55"/><rect class="cls-6" x="351.03" y="289.86" width="1.5" height="2.55"/><rect class="cls-6" x="351.03" y="285.3" width="1.5" height="2.55"/><rect class="cls-5" x="344.5" y="298.01" width="15" height="13.75"/><rect class="cls-6" x="351.03" y="308.19" width="1.5" height="2.55"/><rect class="cls-6" x="351.03" y="303.61" width="1.5" height="2.55"/><rect class="cls-6" x="351.03" y="299.05" width="1.5" height="2.55"/><rect class="cls-5" x="344.5" y="311.76" width="15" height="13.75"/><rect class="cls-6" x="351.03" y="321.94" width="1.5" height="2.55"/><rect class="cls-6" x="351.03" y="317.36" width="1.5" height="2.55"/><rect class="cls-6" x="351.03" y="312.8" width="1.5" height="2.55"/><rect class="cls-5" x="112.75" y="168.5" width="13.75" height="15"/><rect class="cls-6" x="113.77" y="175.03" width="2.55" height="1.5"/><rect class="cls-6" x="118.34" y="175.03" width="2.55" height="1.5"/><rect class="cls-6" x="122.91" y="175.03" width="2.55" height="1.5"/><rect class="cls-5" x="99" y="168.5" width="13.75" height="15"/><rect class="cls-6" x="100.02" y="175.03" width="2.55" height="1.5"/><rect class="cls-6" x="104.59" y="175.03" width="2.55" height="1.5"/><rect class="cls-6" x="109.16" y="175.03" width="2.55" height="1.5"/><rect class="cls-5" x="85.25" y="168.5" width="13.75" height="15"/><rect class="cls-6" x="86.27" y="175.03" width="2.55" height="1.5"/><rect class="cls-6" x="90.84" y="175.03" width="2.55" height="1.5"/><rect class="cls-6" x="95.41" y="175.03" width="2.55" height="1.5"/><rect class="cls-5" x="71.5" y="168.5" width="13.75" height="15"/><rect class="cls-6" x="72.52" y="175.03" width="2.55" height="1.5"/><rect class="cls-6" x="77.09" y="175.03" width="2.55" height="1.5"/><rect class="cls-6" x="81.66" y="175.03" width="2.55" height="1.5"/><rect class="cls-5" x="608.75" y="168.5" width="13.75" height="15"/><rect class="cls-6" x="609.77" y="175.03" width="2.55" height="1.5"/><rect class="cls-6" x="614.34" y="175.03" width="2.55" height="1.5"/><rect class="cls-6" x="618.91" y="175.03" width="2.55" height="1.5"/><rect class="cls-5" x="595" y="168.5" width="13.75" height="15"/><rect class="cls-6" x="596.02" y="175.03" width="2.55" height="1.5"/><rect class="cls-6" x="600.59" y="175.03" width="2.55" height="1.5"/><rect class="cls-6" x="605.16" y="175.03" width="2.55" height="1.5"/><rect class="cls-5" x="581.25" y="168.5" width="13.75" height="15"/><rect class="cls-6" x="582.27" y="175.03" width="2.55" height="1.5"/><rect class="cls-6" x="586.84" y="175.03" width="2.55" height="1.5"/><rect class="cls-6" x="591.41" y="175.03" width="2.55" height="1.5"/><rect class="cls-5" x="567.5" y="168.5" width="13.75" height="15"/><rect class="cls-6" x="568.52" y="175.03" width="2.55" height="1.5"/><rect class="cls-6" x="573.09" y="175.03" width="2.55" height="1.5"/><rect class="cls-6" x="577.66" y="175.03" width="2.55" height="1.5"/><rect class="cls-5" x="344.5" y="30.48" width="15" height="13.75"/><rect class="cls-6" x="351.03" y="40.67" width="1.5" height="2.55"/><rect class="cls-6" x="351.03" y="36.09" width="1.5" height="2.55"/><rect class="cls-6" x="351.03" y="31.53" width="1.5" height="2.55"/><rect class="cls-5" x="344.5" y="44.23" width="15" height="13.75"/><rect class="cls-6" x="351.03" y="54.42" width="1.5" height="2.55"/><rect class="cls-6" x="351.03" y="49.84" width="1.5" height="2.55"/><rect class="cls-6" x="351.03" y="45.28" width="1.5" height="2.55"/><rect class="cls-5" x="344.5" y="57.98" width="15" height="13.75"/><rect class="cls-6" x="351.03" y="68.17" width="1.5" height="2.55"/><rect class="cls-6" x="351.03" y="63.59" width="1.5" height="2.55"/><rect class="cls-6" x="351.03" y="59.03" width="1.5" height="2.55"/><rect class="cls-5" x="344.5" y="71.73" width="15" height="13.75"/><rect class="cls-6" x="351.03" y="81.92" width="1.5" height="2.55"/><rect class="cls-6" x="351.03" y="77.34" width="1.5" height="2.55"/><rect class="cls-6" x="351.03" y="72.78" width="1.5" height="2.55"/></g></svg>