<?xml version="1.0" encoding="utf-8"?>
<!-- Generator: Adobe Illustrator 21.1.0, SVG Export Plug-In . SVG Version: 6.00 Build 0)  -->
<svg version="1.1" xmlns="http://www.w3.org/2000/svg" xmlns:xlink="http://www.w3.org/1999/xlink" x="0px" y="0px"
	 viewBox="0 0 700 368" style="enable-background:new 0 0 700 368;" xml:space="preserve">
<style type="text/css">
	.st0{fill:none;}
	.st1{fill:#52388D;}
	.st2{font-family:'Montserrat-Black';}
	.st3{font-size:56px;}
	.st4{letter-spacing:11;}
	.st5{font-family:'Montserrat-SemiBold';}
	.st6{letter-spacing:8;}
	.st7{fill-rule:evenodd;clip-rule:evenodd;}
</style>
<g id="Layer_1">
</g>
<g id="Layer_2">
	<rect x="281" y="104.5" class="st0" width="244" height="50"/>
	<text transform="matrix(1 0 0 1 281 146.0557)" class="st1 st2 st3 st4">THE</text>
</g>
<g id="Layer_3">
	<text transform="matrix(1 0 0 1 156.0039 197.5084)" class="st1 st5 st3 st6">PURCHASE</text>
</g>
<g id="Layer_4">
	<text transform="matrix(1 0 0 1 249.0032 249.5092)" class="st1 st2 st3 st4">HUNT</text>
</g>
<g id="Layer_5">
	<g>
		<line class="st1" x1="352" y1="270.5" x2="352" y2="325.5"/>
		<g>
			<g>
				<g>
					<g>
						<g>
							<rect x="344.5" y="270.5" class="st0" width="15" height="13.8"/>
						</g>
						<rect x="351" y="280.7" class="st7" width="1.5" height="2.6"/>
						<rect x="351" y="276.1" class="st7" width="1.5" height="2.6"/>
						<rect x="351" y="271.5" class="st7" width="1.5" height="2.6"/>
					</g>
				</g>
				<g>
					<g>
						<g>
							<rect x="344.5" y="284.3" class="st0" width="15" height="13.8"/>
						</g>
						<rect x="351" y="294.4" class="st7" width="1.5" height="2.6"/>
						<rect x="351" y="289.9" class="st7" width="1.5" height="2.6"/>
						<rect x="351" y="285.3" class="st7" width="1.5" height="2.6"/>
					</g>
				</g>
				<g>
					<g>
						<g>
							<rect x="344.5" y="298" class="st0" width="15" height="13.8"/>
						</g>
						<rect x="351" y="308.2" class="st7" width="1.5" height="2.6"/>
						<rect x="351" y="303.6" class="st7" width="1.5" height="2.6"/>
						<rect x="351" y="299" class="st7" width="1.5" height="2.6"/>
					</g>
				</g>
				<g>
					<g>
						<g>
							<rect x="344.5" y="311.8" class="st0" width="15" height="13.8"/>
						</g>
						<rect x="351" y="321.9" class="st7" width="1.5" height="2.6"/>
						<rect x="351" y="317.4" class="st7" width="1.5" height="2.6"/>
						<rect x="351" y="312.8" class="st7" width="1.5" height="2.6"/>
					</g>
				</g>
			</g>
		</g>
	</g>
	<g>
		<line class="st1" x1="126.5" y1="176" x2="71.5" y2="176"/>
		<g>
			<g>
				<g>
					<g>
						<g>
							<rect x="112.8" y="168.5" class="st0" width="13.8" height="15"/>
						</g>
						<rect x="113.8" y="175" class="st7" width="2.6" height="1.5"/>
						<rect x="118.3" y="175" class="st7" width="2.6" height="1.5"/>
						<rect x="122.9" y="175" class="st7" width="2.6" height="1.5"/>
					</g>
				</g>
				<g>
					<g>
						<g>
							<rect x="99" y="168.5" class="st0" width="13.8" height="15"/>
						</g>
						<rect x="100" y="175" class="st7" width="2.6" height="1.5"/>
						<rect x="104.6" y="175" class="st7" width="2.6" height="1.5"/>
						<rect x="109.2" y="175" class="st7" width="2.6" height="1.5"/>
					</g>
				</g>
				<g>
					<g>
						<g>
							<rect x="85.3" y="168.5" class="st0" width="13.8" height="15"/>
						</g>
						<rect x="86.3" y="175" class="st7" width="2.6" height="1.5"/>
						<rect x="90.8" y="175" class="st7" width="2.6" height="1.5"/>
						<rect x="95.4" y="175" class="st7" width="2.6" height="1.5"/>
					</g>
				</g>
				<g>
					<g>
						<g>
							<rect x="71.5" y="168.5" class="st0" width="13.8" height="15"/>
						</g>
						<rect x="72.5" y="175" class="st7" width="2.6" height="1.5"/>
						<rect x="77.1" y="175" class="st7" width="2.6" height="1.5"/>
						<rect x="81.7" y="175" class="st7" width="2.6" height="1.5"/>
					</g>
				</g>
			</g>
		</g>
	</g>
	<g>
		<line class="st1" x1="622.5" y1="176" x2="567.5" y2="176"/>
		<g>
			<g>
				<g>
					<g>
						<g>
							<rect x="608.8" y="168.5" class="st0" width="13.8" height="15"/>
						</g>
						<rect x="609.8" y="175" class="st7" width="2.6" height="1.5"/>
						<rect x="614.3" y="175" class="st7" width="2.6" height="1.5"/>
						<rect x="618.9" y="175" class="st7" width="2.6" height="1.5"/>
					</g>
				</g>
				<g>
					<g>
						<g>
							<rect x="595" y="168.5" class="st0" width="13.8" height="15"/>
						</g>
						<rect x="596" y="175" class="st7" width="2.6" height="1.5"/>
						<rect x="600.6" y="175" class="st7" width="2.6" height="1.5"/>
						<rect x="605.2" y="175" class="st7" width="2.6" height="1.5"/>
					</g>
				</g>
				<g>
					<g>
						<g>
							<rect x="581.3" y="168.5" class="st0" width="13.8" height="15"/>
						</g>
						<rect x="582.3" y="175" class="st7" width="2.6" height="1.5"/>
						<rect x="586.8" y="175" class="st7" width="2.6" height="1.5"/>
						<rect x="591.4" y="175" class="st7" width="2.6" height="1.5"/>
					</g>
				</g>
				<g>
					<g>
						<g>
							<rect x="567.5" y="168.5" class="st0" width="13.8" height="15"/>
						</g>
						<rect x="568.5" y="175" class="st7" width="2.6" height="1.5"/>
						<rect x="573.1" y="175" class="st7" width="2.6" height="1.5"/>
						<rect x="577.7" y="175" class="st7" width="2.6" height="1.5"/>
					</g>
				</g>
			</g>
		</g>
	</g>
	<g>
		<line class="st1" x1="352" y1="30.5" x2="352" y2="85.5"/>
		<g>
			<g>
				<g>
					<g>
						<g>
							<rect x="344.5" y="30.5" class="st0" width="15" height="13.8"/>
						</g>
						<rect x="351" y="40.7" class="st7" width="1.5" height="2.6"/>
						<rect x="351" y="36.1" class="st7" width="1.5" height="2.6"/>
						<rect x="351" y="31.5" class="st7" width="1.5" height="2.6"/>
					</g>
				</g>
				<g>
					<g>
						<g>
							<rect x="344.5" y="44.2" class="st0" width="15" height="13.8"/>
						</g>
						<rect x="351" y="54.4" class="st7" width="1.5" height="2.6"/>
						<rect x="351" y="49.8" class="st7" width="1.5" height="2.6"/>
						<rect x="351" y="45.3" class="st7" width="1.5" height="2.6"/>
					</g>
				</g>
				<g>
					<g>
						<g>
							<rect x="344.5" y="58" class="st0" width="15" height="13.8"/>
						</g>
						<rect x="351" y="68.2" class="st7" width="1.5" height="2.6"/>
						<rect x="351" y="63.6" class="st7" width="1.5" height="2.6"/>
						<rect x="351" y="59" class="st7" width="1.5" height="2.6"/>
					</g>
				</g>
				<g>
					<g>
						<g>
							<rect x="344.5" y="71.7" class="st0" width="15" height="13.8"/>
						</g>
						<rect x="351" y="81.9" class="st7" width="1.5" height="2.6"/>
						<rect x="351" y="77.3" class="st7" width="1.5" height="2.6"/>
						<rect x="351" y="72.8" class="st7" width="1.5" height="2.6"/>
					</g>
				</g>
			</g>
		</g>
	</g>
</g>
</svg>
